<svg xmlns="http://www.w3.org/2000/svg" xmlns:xlink="http://www.w3.org/1999/xlink" viewBox="0,0,256,256" width="64px" height="64px" fill-rule="nonzero"><g fill="#04aeda" fill-rule="nonzero" stroke="none" stroke-width="1" stroke-linecap="butt" stroke-linejoin="miter" stroke-miterlimit="10" stroke-dasharray="" stroke-dashoffset="0" font-family="none" font-weight="none" font-size="none" text-anchor="none" style="mix-blend-mode: normal"><g transform="scale(8,8)"><path d="M12,15h-2v-1h-4c-0.55225,0 -1,-0.44775 -1,-1v-2h2v1h4c0.55225,0 1,0.44775 1,1zM15,11h2v4h-2zM22,15h-2v-2c0,-0.55225 0.44727,-1 1,-1h4v-1h2v2c0,0.55225 -0.44727,1 -1,1h-4zM24,30h-16.00001c-1.65685,0 -3,-1.34314 -3,-3v0h22v0c0,1.65685 -1.34314,3 -3,3zM23,16h-14c-1.10455,0 -2,0.89539 -2,2v8h18v-8c0,-1.10461 -0.89545,-2 -2,-2zM13.82031,23.11621c0.21191,0.17676 0.24023,0.49219 0.06396,0.7041c-0.09912,0.11816 -0.24121,0.17969 -0.38477,0.17969c-0.11279,0 -0.22607,-0.03809 -0.31982,-0.11621l-3,-2.5c-0.11377,-0.09473 -0.17969,-0.23535 -0.17969,-0.38379c0,-0.14844 0.06592,-0.28906 0.17969,-0.38379l3,-2.5c0.21338,-0.17773 0.52832,-0.14844 0.70459,0.06348c0.17627,0.21191 0.14795,0.52734 -0.06396,0.7041l-2.53906,2.11621zM15.99042,23.59766c-0.04785,0.23828 -0.25586,0.40234 -0.48926,0.40234c-0.0332,0 -0.06641,-0.00293 -0.09863,-0.00977c-0.27148,-0.05371 -0.44727,-0.31738 -0.39258,-0.58789l1,-5c0.05469,-0.27246 0.33105,-0.44824 0.58789,-0.39258c0.27148,0.05371 0.44727,0.31738 0.39258,0.58789zM21.82025,21.38403l-3,2.5c-0.09375,0.07813 -0.20703,0.11621 -0.31982,0.11621c-0.14355,0 -0.28564,-0.06152 -0.38477,-0.17969c-0.17627,-0.21191 -0.14795,-0.52734 0.06396,-0.7041l2.53906,-2.11621l-2.53906,-2.11621c-0.21191,-0.17676 -0.24023,-0.49219 -0.06396,-0.7041c0.17627,-0.21191 0.49121,-0.24121 0.70459,-0.06348l3,2.5c0.11377,0.09473 0.17969,0.23535 0.17969,0.38379c0,0.14844 -0.06592,0.28906 -0.17969,0.38379zM10,4v-1c0,-0.55231 -0.44769,-1 -1,-1h-6c-0.55231,0 -1,0.44769 -1,1v1zM2,5v5c0,0.55231 0.44769,1 1,1h6c0.55231,0 1,-0.44769 1,-1v-5zM20,4v-1c0,-0.55231 -0.44769,-1 -1,-1h-6c-0.55231,0 -1,0.44769 -1,1v1zM12,5v5c0,0.55231 0.44769,1 1,1h6c0.55231,0 1,-0.44769 1,-1v-5zM30,4v-1c0,-0.55231 -0.44769,-1 -1,-1h-6c-0.55231,0 -1,0.44769 -1,1v1zM22,5v5c0,0.55231 0.44769,1 1,1h6c0.55231,0 1,-0.44769 1,-1v-5z"></path></g></g></svg>