<svg xmlns="http://www.w3.org/2000/svg" xmlns:xlink="http://www.w3.org/1999/xlink" version="1.1" width="16" height="16" viewBox="0 0 16 16" xml:space="preserve">
  <desc>
    Created with Fabric.js 5.4.0
  </desc>
  <defs />
  <!-- Background Rectangle -->
  <rect x="0" y="0" width="16" height="16" fill="#15181f" />
  <g transform="matrix(1 0 0 1 8.5 8.29)">
    <g style="">
      <g transform="matrix(1 0 0 1 0 0)">
        <rect x="-7.052235709749124" y="-6.215" rx="0" ry="0" width="14.104471419498248" height="12.43" stroke="rgb(255,255,255)" stroke-opacity="0" stroke-width="1" stroke-dasharray="none" stroke-linecap="butt" stroke-dashoffset="0" stroke-linejoin="miter" stroke-miterlimit="4" fill="rgb(255,255,255)" fill-opacity="0" fill-rule="nonzero" opacity="1" />
      </g>
      <g transform="matrix(1 0 0 1 -0.47 -0.79)">
        <path paint-order="stroke" transform="translate(-8.02, -7.5)" d="M 10.67 5.12 L 10.67 5.12 Q 10.67 5.39 10.57 5.61 Q 10.47 5.82 10.29 5.98 Q 10.12 6.14 9.88 6.22 Q 9.64 6.31 9.36 6.31 L 9.36 6.31 Q 9.05 6.31 8.84 6.23 Q 8.62 6.16 8.47 6.04 Q 8.32 5.93 8.24 5.78 Q 8.15 5.64 8.1 5.51 Q 8.06 5.37 8.05 5.26 Q 8.03 5.15 8.03 5.09 L 8.03 5.09 Q 8.1 5.2 8.18 5.23 Q 8.27 5.26 8.33 5.26 L 8.33 5.26 Q 8.48 5.26 8.54 5.17 Q 8.6 5.09 8.6 5 L 8.6 5 Q 8.6 4.94 8.58 4.88 Q 8.55 4.81 8.49 4.76 Q 8.43 4.7 8.32 4.66 Q 8.22 4.63 8.06 4.63 L 8.06 4.63 Q 7.96 4.63 7.84 4.67 Q 7.73 4.71 7.64 4.79 Q 7.54 4.87 7.48 5 Q 7.43 5.12 7.43 5.29 L 7.43 5.29 Q 7.43 5.45 7.49 5.61 Q 7.56 5.77 7.68 5.91 Q 7.79 6.04 7.95 6.16 Q 8.11 6.27 8.3 6.35 L 8.3 6.35 Q 8.59 6.47 8.91 6.59 Q 9.22 6.71 9.51 6.85 Q 9.81 6.98 10.07 7.16 Q 10.33 7.34 10.53 7.59 Q 10.72 7.84 10.84 8.17 Q 10.95 8.5 10.95 8.94 L 10.95 8.94 Q 10.95 9.57 10.7 10.09 Q 10.44 10.6 10.02 10.97 Q 9.59 11.34 9.03 11.54 Q 8.47 11.74 7.85 11.74 L 7.85 11.74 Q 7.3 11.74 6.8 11.58 Q 6.3 11.42 5.93 11.13 Q 5.55 10.85 5.33 10.46 Q 5.1 10.08 5.1 9.63 L 5.1 9.63 Q 5.1 9.31 5.21 9.06 Q 5.32 8.81 5.51 8.65 Q 5.7 8.48 5.96 8.4 Q 6.21 8.32 6.5 8.32 L 6.5 8.32 Q 6.73 8.32 6.94 8.37 Q 7.16 8.42 7.35 8.51 Q 7.54 8.61 7.7 8.74 Q 7.85 8.88 7.94 9.05 L 7.94 9.05 Q 7.83 9.02 7.74 9.02 L 7.74 9.02 Q 7.6 9.02 7.51 9.1 Q 7.43 9.19 7.43 9.36 L 7.43 9.36 Q 7.43 9.45 7.47 9.53 Q 7.51 9.61 7.58 9.67 Q 7.65 9.72 7.73 9.76 Q 7.82 9.79 7.92 9.79 L 7.92 9.79 Q 8.03 9.79 8.12 9.74 Q 8.21 9.7 8.28 9.62 Q 8.35 9.55 8.39 9.46 Q 8.42 9.36 8.42 9.27 L 8.42 9.27 Q 8.42 9.08 8.31 8.89 Q 8.19 8.69 7.97 8.54 L 7.97 8.54 Q 7.55 8.28 7.18 8.1 Q 6.81 7.91 6.5 7.74 Q 6.19 7.57 5.94 7.4 Q 5.69 7.23 5.52 7 Q 5.34 6.78 5.25 6.47 Q 5.16 6.17 5.16 5.74 L 5.16 5.74 Q 5.16 5.22 5.36 4.77 Q 5.56 4.32 5.93 3.99 Q 6.31 3.65 6.86 3.46 Q 7.41 3.26 8.11 3.26 L 8.11 3.26 Q 8.81 3.26 9.3 3.43 Q 9.79 3.6 10.09 3.87 Q 10.4 4.14 10.53 4.47 Q 10.67 4.8 10.67 5.12 Z" stroke-linecap="butt" stroke="rgb(255,255,255)" stroke-width="0" stroke-dasharray="none" stroke-dashoffset="0" stroke-linejoin="miter" stroke-miterlimit="4" fill="rgb(255,255,255)" fill-rule="nonzero" opacity="1" />
      </g>
    </g>
  </g>
</svg>
