<svg viewBox="476.38050000000004 0 549 160.5" data-version="1" data-id="lg_THGfel6ehoqsKVWHS2" xml:space="preserve" xmlns="http://www.w3.org/2000/svg" style="max-height: 500px" width="549" height="160.5"><g data-padding="20"><g transform="translate(10 2.679)scale(.96429)"><rect transform="translate(400 400)" ry="0" rx="0" fill="none" y="-400.165" x="87.407" height="149.16" width="560"/><path d="M568.937 42.345q0 3.22-1.19 5.83-1.2 2.61-3.32 4.48-2.13 1.87-5 2.9t-6.22 1.03q-3.67 0-6.28-.9-2.61-.91-4.39-2.29-1.77-1.39-2.8-3.09-1.03-1.71-1.58-3.32-.55-1.62-.71-2.97t-.16-2.06q.78 1.29 1.81 1.64 1.03.36 1.74.36 1.8 0 2.54-.97t.74-2.06q0-.71-.29-1.48-.29-.78-1.03-1.46-.74-.67-2-1.12-1.25-.45-3.12-.45-1.29 0-2.64.48-1.36.48-2.49 1.48-1.12 1-1.83 2.48-.71 1.49-.71 3.48 0 1.94.8 3.84.81 1.9 2.2 3.58 1.38 1.67 3.28 3.02 1.9 1.36 4.16 2.26 3.54 1.48 7.32 2.9 3.77 1.42 7.31 3.09 3.55 1.68 6.67 3.84 3.13 2.16 5.48 5.12 2.35 2.97 3.74 6.93 1.38 3.97 1.38 9.25 0 7.54-3.06 13.76t-8.18 10.64q-5.13 4.41-11.86 6.83-6.74 2.42-14.09 2.42-6.63 0-12.63-1.97-5.99-1.97-10.5-5.38-4.52-3.42-7.19-8.03-2.68-4.6-2.68-9.95 0-3.94 1.29-6.9 1.29-2.97 3.58-4.93 2.29-1.97 5.35-2.93 3.06-.97 6.54-.97 2.71 0 5.32.58t4.9 1.71 4.12 2.74q1.84 1.61 2.94 3.67-1.36-.39-2.39-.39-1.74 0-2.77 1.04-1.03 1.03-1.03 3.09 0 1.09.51 2.03.52.93 1.33 1.64.8.71 1.86 1.1 1.07.39 2.23.39 1.29 0 2.38-.55 1.1-.55 1.94-1.45.83-.91 1.29-2 .45-1.1.45-2.26 0-2.25-1.39-4.57-1.38-2.32-4.03-4.13-5.02-3.09-9.47-5.35-4.45-2.25-8.19-4.28t-6.73-4.1q-3-2.06-5.09-4.77-2.1-2.7-3.19-6.34-1.1-3.65-1.1-8.8 0-6.19 2.38-11.6 2.39-5.42 6.93-9.45 4.55-4.02 11.12-6.35 6.58-2.32 14.95-2.32 8.45 0 14.31 2.03 5.87 2.04 9.51 5.26t5.28 7.18q1.65 3.97 1.65 7.84m74.57 74.44q-1.22-.13-2.84-.26-1.35-.13-3.25-.19-1.9-.07-4.16-.07-3.22 0-7.06.26-3.83.26-7.89.97l.26-18.11q-2.45 9.6-7.19 14.82t-11.12 5.22q-2 0-4.51-.51-2.51-.52-5.12-1.97t-5.1-4.03q-2.48-2.58-4.41-6.67t-3.09-9.93q-1.16-5.83-1.16-13.82 0-10.83 2.19-18.53t5.6-12.6q3.42-4.9 7.55-7.16 4.12-2.25 8.05-2.25 3.35 0 6.09.93 2.74.94 4.87 2.39t3.67 3.25q1.55 1.81 2.52 3.61-.2-2.19-.58-4.67-.39-2.48-.91-5.12 4.19.83 8.51 1.09t7.99.26q4.39 0 7.09-.19 1.55-.07 2.84-.2-.71 3.22-1.29 7.22t-1 8.54-.64 9.54q-.23 5-.23 10.22 0 9.73.97 19.53.97 9.79 3.35 18.43m-26.49-36.93v-10.44q0-1.74-.19-3.55-.2-1.8-.87-3.29-.68-1.48-1.97-2.41-1.29-.94-3.48-.94-2.32 0-3.83 1.61-1.52 1.61-2.45 4.42-.94 2.8-1.29 6.64-.36 3.83-.36 8.34 0 2.58.36 5.22.35 2.65 1.19 4.81t2.26 3.51q1.41 1.35 3.48 1.35 2.32 0 3.73-1.61 1.42-1.61 2.16-3.99.74-2.39 1-5t.26-4.67m98.94 37.32q-2-.33-4.39-.42-2.38-.1-4.96-.1-3.09 0-6.28.16t-6.22.42-5.74.58-4.71.58q2.78-9.35 4.29-19.98 1.52-10.64 1.52-23.59 0-.97-.04-2.58-.03-1.61-.16-3.48t-.42-3.77-.83-3.45q-.55-1.54-1.39-2.51t-2.06-.97q-1.81 0-3.52 1.29-1.7 1.29-3.02 3.42-1.33 2.12-2.13 4.9-.81 2.77-.81 5.73 0 5.35.26 10.86t.84 10.93q.58 5.41 1.48 10.6t2.26 9.83q-1.1-.07-2.58-.19-1.29-.07-3.03-.13-1.74-.07-4-.07-4.19 0-9.66.36-5.48.35-11.86 1.32.77-3.61 1.35-8.83t.97-11.35q.38-6.12.61-12.79.22-6.67.22-13.18 0-4.83-.13-9.48-.12-4.64-.35-8.76-.23-4.13-.61-7.61-.39-3.48-.9-5.99 5.22.9 9.66 1.26 4.45.35 8.06.35 2.32 0 4.16-.1 1.83-.09 3.12-.22 1.55-.19 2.71-.39-.39 2-.74 4.26-.36 2.25-.68 4.89 2.13-2.7 4.51-4.73 2.39-2.03 4.81-3.39 2.41-1.35 4.8-2.03 2.38-.67 4.51-.67 4.64 0 8.02 1.9 3.39 1.9 5.61 5.96 2.23 4.06 3.32 10.38 1.1 6.31 1.1 15.14 0 6.06.03 12.31.03 6.26.29 12.25t.9 11.38q.65 5.38 1.81 9.7" fill="#fff"/><path d="M720.197 23.445q0-2.96 1.13-5.57t3.09-4.58q1.97-1.97 4.58-3.09 2.61-1.13 5.57-1.13 2.97 0 5.58 1.13 2.61 1.12 4.57 3.09 1.97 1.97 3.1 4.58t1.13 5.57q0 2.97-1.13 5.61t-3.1 4.61q-1.96 1.96-4.57 3.09t-5.58 1.13q-2.96 0-5.57-1.13t-4.58-3.09q-1.96-1.97-3.09-4.61t-1.13-5.61m28.62 18.37q-.71 2.71-1.2 6.61-.48 3.9-.87 8.5-.38 4.61-.61 9.58-.22 4.96-.42 9.73-.38 11.21-.45 23.78 0 6.58-.8 12.86-.81 6.28-2.58 11.83-1.77 5.54-4.58 10.24-2.8 4.71-6.83 8.06t-9.35 5.25q-5.31 1.91-12.02 1.91-5.02 0-8.92-1.29t-6.58-3.65q-2.67-2.35-4.09-5.6-1.42-3.26-1.42-7.25 0-3.1 1.16-5.68 1.16-2.57 3.03-4.44t4.29-2.94q2.41-1.06 4.86-1.06 3.23 0 6.06 1.97 2.84 1.96 4.51 6.35-.38-.33-.87-.42-.48-.1-.99-.1-1.49 0-2.78 1.19t-1.29 2.87q0 1.1.49 1.87.48.77 1.22 1.29.74.51 1.58.74t1.61.23q1.23 0 2.68-.46 1.45-.45 2.87-2.28 1.41-1.84 2.7-5.42 1.29-3.57 2.29-9.86 1-6.28 1.61-15.69t.61-22.82q0-4.7-.16-9.57t-.58-9.67-1.12-9.47q-.71-4.68-1.81-8.93 1.61.71 4 1.29 2.06.51 5.19.87 3.12.35 7.44.35 5.22 0 12.12-.77m71.68 74.97q-1.23-.13-2.84-.26-1.35-.13-3.25-.19-1.9-.07-4.16-.07-3.22 0-7.06.26-3.83.26-7.89.97l.26-18.11q-2.45 9.6-7.19 14.82t-11.12 5.22q-2 0-4.51-.51-2.51-.52-5.13-1.97-2.61-1.45-5.09-4.03t-4.41-6.67q-1.94-4.09-3.1-9.93-1.16-5.83-1.16-13.82 0-10.83 2.2-18.53 2.19-7.7 5.6-12.6 3.42-4.9 7.54-7.16 4.13-2.25 8.06-2.25 3.35 0 6.09.93 2.74.94 4.87 2.39 2.12 1.45 3.67 3.25 1.55 1.81 2.52 3.61-.2-2.19-.58-4.67-.39-2.48-.91-5.12 4.19.83 8.51 1.09t7.99.26q4.39 0 7.09-.19 1.55-.07 2.84-.2-.71 3.22-1.29 7.22t-1 8.54-.64 9.54q-.23 5-.23 10.22 0 9.73.97 19.53.96 9.79 3.35 18.43m-26.49-36.93v-10.44q0-1.74-.19-3.55-.2-1.8-.87-3.29-.68-1.48-1.97-2.41-1.29-.94-3.48-.94-2.32 0-3.84 1.61-1.51 1.61-2.45 4.42-.93 2.8-1.28 6.64-.36 3.83-.36 8.34 0 2.58.36 5.22.35 2.65 1.19 4.81t2.25 3.51q1.42 1.35 3.48 1.35 2.32 0 3.74-1.61t2.16-3.99q.74-2.39 1-5t.26-4.67m95.9-38.03q-.7 2.71-1.19 6.51-.48 3.8-.87 8.19-.38 4.38-.61 9.15t-.42 9.28q-.39 10.63-.45 22.43 0 6.57-.81 12.95-.8 6.38-2.57 12.09-1.78 5.7-4.58 10.57-2.8 4.86-6.83 8.38-4.03 3.51-9.35 5.51t-12.02 2q-6.25 0-10.83-1.29-4.57-1.29-7.57-3.64-3-2.36-4.45-5.64-1.45-3.29-1.45-7.22t1.36-7.12q1.35-3.2 3.54-5.39t4.96-3.38q2.78-1.19 5.61-1.19 3.61 0 6.83 2.06 3.23 2.06 4.9 6.51-.38-.32-.87-.42-.48-.1-1-.1-.71 0-1.45.33-.74.32-1.32.9t-.93 1.32q-.36.74-.36 1.58 0 .97.39 1.64.39.68.93 1.07.55.38 1.23.54t1.26.16q.9 0 2.25-.38 1.35-.39 2.8-1.61 1.45-1.23 2.91-3.42 1.45-2.19 2.57-5.83 1.13-3.64 1.81-8.86.67-5.23.61-12.51-1.68 4.51-3.51 7.32-1.84 2.8-3.87 4.35-2.03 1.54-4.25 2.06-2.23.52-4.74.52-3.16 0-6.61-1.13t-6.31-4q-2.87-2.87-4.74-7.83t-1.87-12.63q0-1.03.03-1.45t.03-.65q0-.22.07-.54.06-.33.06-1.26 0-.94.04-2.68.03-1.74.03-4.89 0-3.68-.13-8.32t-.55-9.09q-.42-4.44-1.19-8.09-.77-3.64-2-5.38 5.22.9 9.83 1.23 4.61.32 8.41.32 2.51 0 4.54-.1 2.03-.09 3.52-.22 1.67-.13 3.03-.33-.52 1.1-1.13 4.19-.61 3.1-1.19 7.42-.58 4.31-.97 9.44-.39 5.12-.39 10.34 0 3.93.58 6.71.58 2.77 1.58 4.54t2.32 2.61 2.87.84q2.45 0 3.9-2t2.48-5.03q-.13-3.99-.45-9.34t-.87-11.15-1.42-11.7-2.16-10.99q2 .71 4.77 1.29 2.39.51 5.8.87 3.42.35 8.06.35 5.48 0 12.37-.77m71.81 74.96q-1.23-.13-2.84-.26-1.35-.13-3.26-.19-1.9-.07-4.15-.07-3.23 0-7.06.26-3.84.26-7.9.97l.26-18.11q-2.45 9.6-7.18 14.82-4.74 5.22-11.12 5.22-2 0-4.51-.51-2.52-.52-5.13-1.97t-5.09-4.03-4.42-6.67q-1.93-4.09-3.09-9.93-1.16-5.83-1.16-13.82 0-10.83 2.19-18.53t5.61-12.6 7.54-7.16q4.13-2.25 8.06-2.25 3.35 0 6.09.93 2.74.94 4.86 2.39 2.13 1.45 3.68 3.25 1.55 1.81 2.51 3.61-.19-2.19-.58-4.67-.38-2.48-.9-5.12 4.19.83 8.51 1.09t7.99.26q4.38 0 7.09-.19 1.55-.07 2.84-.2-.71 3.22-1.29 7.22t-1 8.54-.65 9.54q-.22 5-.22 10.22 0 9.73.96 19.53.97 9.79 3.36 18.43m-26.49-36.93v-10.44q0-1.74-.2-3.55-.19-1.8-.87-3.29-.67-1.48-1.96-2.41-1.29-.94-3.48-.94-2.32 0-3.84 1.61-1.51 1.61-2.45 4.42-.93 2.8-1.29 6.64-.35 3.83-.35 8.34 0 2.58.35 5.22.36 2.65 1.19 4.81.84 2.16 2.26 3.51t3.48 1.35q2.32 0 3.74-1.61t2.16-3.99q.74-2.39 1-5t.26-4.67m98.93 37.32q-2-.33-4.38-.42-2.39-.1-4.96-.1-3.1 0-6.29.16t-6.22.42-5.74.58q-2.7.32-4.7.58 2.77-9.35 4.29-19.98 1.51-10.64 1.51-23.59 0-.97-.03-2.58t-.16-3.48-.42-3.77-.84-3.45q-.55-1.54-1.39-2.51-.83-.97-2.06-.97-1.8 0-3.51 1.29t-3.03 3.42q-1.32 2.12-2.13 4.9-.8 2.77-.8 5.73 0 5.35.26 10.86.25 5.51.83 10.93.58 5.41 1.49 10.6.9 5.19 2.25 9.83-1.09-.07-2.58-.19-1.29-.07-3.03-.13-1.74-.07-3.99-.07-4.19 0-9.67.36-5.48.35-11.86 1.32.77-3.61 1.35-8.83t.97-11.35q.39-6.12.61-12.79.23-6.67.23-13.18 0-4.83-.13-9.48-.13-4.64-.35-8.76-.23-4.13-.62-7.61-.38-3.48-.9-5.99 5.22.9 9.67 1.26 4.45.35 8.06.35 2.32 0 4.15-.1 1.84-.09 3.13-.22 1.55-.19 2.71-.39-.39 2-.75 4.26-.35 2.25-.67 4.89 2.12-2.7 4.51-4.73 2.38-2.03 4.8-3.39 2.42-1.35 4.8-2.03 2.39-.67 4.51-.67 4.65 0 8.03 1.9t5.61 5.96q2.22 4.06 3.32 10.38 1.09 6.31 1.09 15.14 0 6.06.03 12.31.04 6.26.29 12.25.26 5.99.91 11.38.64 5.38 1.8 9.7" fill="#fff"/></g><path d="M470 0h560v150H470z" stroke="transparent" fill="transparent"/></g></svg>