<svg xmlns="http://www.w3.org/2000/svg"  viewBox="0 0 60 60" width="60px" height="60px"><path fill="#292d60" d="M1,7V45c0,3.21,8.86,5.84,20,5.99L43,33V7Z"/><ellipse cx="22" cy="7" fill="#3b437f" rx="21" ry="6"/><path fill="#3b437f" d="M1,32.993c0,3.314,9.4,6,21,6s21-2.686,21-6V20c0,3.314-9.4,6-21,6S1,23.314,1,20Z"/><rect width="38" height="26" x="21" y="33" fill="#aac7c8" rx="2"/><path fill="#fff" d="M40,39a4,4,0,0,0-4,4v6a4,4,0,0,0,4,4,3.947,3.947,0,0,0,2.019-.567l.274.274a1,1,0,0,0,1.414-1.414l-.274-.274A3.947,3.947,0,0,0,44,49V43A4,4,0,0,0,40,39Zm1.707,10.293a1,1,0,0,0-1.414,1.414l.218.218A1.96,1.96,0,0,1,40,51a2,2,0,0,1-2-2V43a2,2,0,0,1,4,0v6a1.96,1.96,0,0,1-.075.511Z"/><path fill="#fff" d="M30,41a2,2,0,0,1,2,2,1,1,0,0,0,2,0,4,4,0,1,0-4,4,2,2,0,1,1-2,2,1,1,0,0,0-2,0,4,4,0,1,0,4-4,2,2,0,0,1,0-4Z"/><path fill="#fff" d="M53,51H48V40a1,1,0,0,0-2,0V52a1,1,0,0,0,1,1h6a1,1,0,0,0,0-2Z"/></svg>